<svg id="Layer_1" data-name="Layer 1" xmlns="http://www.w3.org/2000/svg" viewBox="0 0 1000 1000"><defs><style>.cls-1{fill:#414141;}</style></defs><path class="cls-1" d="M757.17,711.29c-3.56-10.38-6.8-20.88-10.57-31.19C726,623.82,695.18,573.38,658.31,526.43c-1.5-1.92-3.11-3.64-3.3-6.41-.59-8.7-1.4-17.38-2.25-26.06-2.38-24.46-5.27-48.84-11.63-72.59,37.27-.06,67.1-14.81,86.54-46.93,35.39-58.52,3.76-137.54-63.5-160.46C597.68,191.33,533.93,230.31,526,298.19c-.95,8.14.4,16.16,1.09,24.46-4.14-.29-4.22.54-4.34,6.34q-1.75,82-3.47,163.93c-.12,5.64-.5,11.27-.76,16.91a12.41,12.41,0,0,1-1.08-6.11c-.3-60-.68-119.94-.75-179.91,0-5.37-2-6.89-6.71-7.24a125.79,125.79,0,0,0-19.89,0c-4.78.39-6.95,1.86-7,7.48-.1,60.35-.55,120.7-.92,181,0,1.6-.18,3.21-.27,4.81A3.71,3.71,0,0,1,480.9,507q-1.25-64.32-2.49-128.64c-.33-17.07-.75-34.15-1.06-51.22-.05-2.89,0-5.18-4.14-4.74l-.28,0c.06-.72.14-1.49.23-2.32,4.55-39.23-8.34-71.74-41.15-94.55-50.69-35.23-122.52-17.46-157.33,38.19C236,325.61,266.26,403.2,335.36,419.6c7.52,1.79,15.19,2.09,23.3,2.48-7.88,29.56-10.49,60-13,90.5-.54,6.42-2.14,11.8-6.28,17.07-26.09,33.18-48.89,68.49-67.48,106.44A445.32,445.32,0,0,0,241.82,715v4.56c7.79,19.68,23.8,32.74,38.16,48.23.62-2.38,1.09-3.76,1.34-5.18a518.33,518.33,0,0,1,24.31-89.8c11.91-32.5,26.21-63.82,47.82-91.26,29-36.85,72.38-39.5,105.46-6.55,8.34,8.3,16.47,16.82,25,24.87,11.42,10.75,20.44,10.84,31.8.17,9.68-9.08,18.73-18.84,28.34-28,29.83-28.45,72.19-26.1,99,5.36a199,199,0,0,1,20,28.29c24.94,42.4,40.37,88.4,51.37,136,1.92,8.35,3.52,16.77,5.43,25.92,13.41-13.19,25.75-26,35.33-41.21A16.76,16.76,0,0,0,757.17,711.29ZM353.79,548.52c22.28-15.59,45.18-29,73.74-26,14.8,1.54,28,6.72,38.62,18.07C427,519.57,390.19,531,353.79,548.52ZM634,543.64c-15.35-6.45-30.75-12.7-47.6-14.18a91,91,0,0,0-48.95,9.43,9.64,9.64,0,0,1-3.65,1.14c7.66-9.54,18.15-14.11,29.74-16.35a81.23,81.23,0,0,1,47.85,4.73c11.79,5,23,10.94,32.81,19.56C640.83,546.52,637.44,545.07,634,543.64Z"/><path class="cls-1" d="M713.64,752.22c-9.57-38.36-24-75-40-111-9.61-21.58-22.51-40.82-40.19-56.63-8.56-7.67-18-13.88-29.5-16.36-1.71-.37-4.06-1.74-5.23.29s1.23,3.31,2.43,4.58a83.47,83.47,0,0,1,16.56,25c1.91,4.55,1.12,7.6-3.4,9.69s-9.16,4.57-13.85,6.6A137.76,137.76,0,0,1,536.7,626c-4.16-.25-6.13-1.4-5.21-6.16.8-4.1.52-8.4.77-13.63-10.61,8.68-18.85,19.18-32.75,18.92-13.66-.25-21.77-10.9-32.11-19,.4,4.88.42,8.87,1.1,12.73,1,5.65-1.5,7.06-6.67,7.29-26.87,1.18-51.74-5.62-75.41-17.92-5.26-2.73-6-5.79-3.76-10.94a81.64,81.64,0,0,1,16.85-24.78c1-1.07,2.71-2.31,2.09-3.73-.86-2-3-1-4.58-.73-10,1.82-18.43,6.8-26.21,13a141,141,0,0,0-38.73,48.58,642.68,642.68,0,0,0-45.43,121.06c-1.43,5.46-3.24,11.06-2.29,17.16,5.56-2.21,10.56-4.47,15.74-6.21,26.35-8.87,53.46-10.13,80.93-8.14,3.15.23,3.61,2.06,4.28,4.21,3.13,10.13,6.2,20.28,9.43,30.38.49,1.5.31,4.09,2.25,4.23,6.77.49,13.32-1,19.85-2.44-2.17-2.21-4.54-1.67-6.61-1.3-5.05.88-7.31-.82-8.66-6-4.4-16.65-9.39-33.15-14.16-49.7q-5.07-17.61-10.18-35.22l1-.35,34.43,81.53c21.08-21.92,43-41.83,62.56-64,4.47-5.07,7.8-10.35,8.92-17.31a15.54,15.54,0,0,1,16.05-13.26c7.65.14,14.71,5.3,15.63,13.17.89,7.6,4.88,12.9,9.57,18.19,19.16,21.61,40.46,41.11,60.57,61.79a5.11,5.11,0,0,0,1.6.69l33.87-80.24c.49,1.09.67,1.29.63,1.43-8.24,28.74-16.53,57.48-24.68,86.25-.75,2.66-2.13,3.1-4.48,3.11-3.24,0-6.61-1.11-9.79,1.14,5.21,1.33,10.5,1.82,15.74,2.62,3.61.55,5.34-.45,6.39-4.25,2.76-10,6.18-19.88,9.09-29.88,1-3.37,2.51-4.66,6.23-4.89,31.77-2,62.91-.14,92.34,13.59,3,1.4,3.25-.1,2.84-2.48C715.08,760.42,714.65,756.24,713.64,752.22ZM466.86,638.71c-25.79,20.36-75.57,12.53-86.58-19.64C406.37,642.42,435.29,646.74,466.86,638.71ZM465.22,677c-20.91,8.45-33.06,24.63-39.82,45.39-2.63,8.09-4.6,16.38-6.89,24.57-.28,1,.16,2.4-2.48,2.92,3.25-30.4,7.5-59.5,39.89-74.3-4.59-3.07-9.5-3.37-14.35-3.65-12.22-.69-24.17,1.4-36.05,3.86-2.38.49-4.29.79-6.17-1.23-4.88-5.26-9.92-10.38-14.89-15.56l1-1.11c2.87,2.08,6,3.87,8.54,6.31,5,4.84,10.75,5.19,16.89,3.47,18.21-5.09,36-2.51,53.7,2.65,1.95.57,4.63.9,4.76,3.29C469.44,675.66,466.9,676.28,465.22,677Zm18.72-24.17c7.14-8.47,24.27-8.53,32.33,0A76.76,76.76,0,0,0,483.94,652.79Zm-6.86-8.24c13.23-12.31,30.59-12.74,43.38-1.54C506.29,640.34,492.2,639.87,477.08,644.55Zm123.69,29.87c-1.87,2-3.7,1.89-6.13,1.38-11.88-2.49-23.83-4.51-36.07-3.95a42.15,42.15,0,0,0-12.24,2.25c-2,.71-2.55,2.11-.33,3,22.33,8.59,29.44,28,34.65,48.68a88.05,88.05,0,0,1,2.79,25c-2.72-3-2.61-6.27-3.31-9.09a189.92,189.92,0,0,0-8.51-27c-7.15-17.17-18.61-30.19-36.16-37.35-1.91-.78-5.09-1.17-4.71-4,.3-2.22,3.09-2.51,5-3.07,17.53-5,35.17-7.59,53.19-2.51,6.41,1.81,12.28,1.19,17.39-3.75,2.36-2.28,5.31-4,8-5.92C610.75,664.55,605.61,669.34,600.77,674.42Zm-68.83-36.21c32.1,7.35,61.63,5.94,86.71-17.44C606.63,650.66,553.87,657.85,531.94,638.21Z"/></svg>