<?xml version="1.0" encoding="utf-8"?>
<!-- Generator: Adobe Illustrator 26.3.1, SVG Export Plug-In . SVG Version: 6.00 Build 0)  -->
<svg version="1.1" id="Layer_1" xmlns="http://www.w3.org/2000/svg" xmlns:xlink="http://www.w3.org/1999/xlink" x="0px" y="0px"
	 viewBox="0 0 1000 1000" style="enable-background:new 0 0 1000 1000;" xml:space="preserve">
<g>
	<path d="M747.8,574.7c-22.5-81.6-79.7-142.6-158.1-173.8c7.5-0.4,15-0.5,22.4-0.3c2.3,0,4.2-0.6,5.9-2c8.5-7.2,17-14.4,25.7-21.4
		c2.4-1.9,3.1-3.9,3-6.8c-0.3-21.4-3.4-42.4-9.3-62.9c-16-55.5-51-90.8-108.8-101.5c-4.1-0.8-5.3-1.9-5.3-6.1
		c0.4-24.4-0.3-49.1,0.3-73.5c3.9-7.1,1.1-14.7,1.9-22c0.2-2.3-1-3.7-3.5-4c-2.6-0.2-3.6,1.4-3.9,3.5c-0.2,1.1-0.2,2.3-0.2,3.5
		c0,7,1.9,14.1,2.1,20.9c1,24.4,0.4,49,0.5,73.5c0,2.3-0.8,2.9-2.9,2.5c-6.7-1.2-13.6-1.1-20.4-1.2c-3.4,0-5-0.9-4.9-4.9
		c0.3-9.1,0.1-18.3,0.1-27.5c0-1.7,0.8-4.6-1.4-4.7c-2.6-0.1-1.4,2.9-1.4,4.4c-0.1,9.7-0.1,19.3,0,29c0,2.4-0.4,3.4-3.2,3.5
		c-48.1,1.2-88.8,26.9-111.9,68.4c-17.8,31.2-22.4,65.9-24.8,101.1c-0.1,2.1,0.8,3.3,2.4,4.5c9.7,7,19.3,14.1,28.9,21.3
		c2.2,1.7,4.5,2.3,7.3,2.3c7.3-0.2,14.6-0.1,21.9-0.1c-127,49.3-196.5,186.8-155.9,317.8c31,102.3,124.1,174.1,230.2,181.2h30
		C677,889.3,791.4,732.1,747.8,574.7z M723.3,596L723.3,596c2.4,3,1.9,6.9,3.2,10.2c1.1,3,3.4,1.6,5,1.4c2.1-0.3,1-1.9,0.6-3.1
		c-1.2-4.5-2.2-9-2.3-13.6c0-3.2-2.4-3.2-4.4-3.3c-2.6-0.1-1.4,2-1.6,3.3c-0.3,1.8,0.6,3.6-0.3,5.4c-1.2-4-1.2-8.1-1.7-12.9
		c3.8,1.5,7,3,10.4,4.2c2.2,0.8,1.7,2.7,1.9,4.1c1.2,10.6,3.3,21,7.6,30.8c1.3,2.9,2.7,5.7,5.1,7.9c0.8,0.8,2,1.2,2.8,2.1
		c1.2,1.3,4.4-2.5,4.4,2.1c-0.1,4.9-0.6,9.5-5.2,12.1c-2.9,1.7-5.4-0.6-7.4-2.7C731.3,633.8,724.9,609.9,723.3,596L723.3,596
		L723.3,596C723.3,596,723.3,596,723.3,596z M727.3,590.2c0.9,5.1,1.7,10.3,2.6,15.4C727,600.8,725.3,595.8,727.3,590.2z
		 M753.5,626.5c0.1,1.6-0.8,3.5-2.6,3.8c-2,0.4-3.3-1.2-4.3-2.8c-6.8-10.8-9.1-22.4-10.8-35c2.3,1.9,4.2,3.6,6.1,5
		c1.1,0.8,1.9,3.3,4.2,0.7c0.8-0.8,3.8,2.3,4.3,4.2C752.6,610.3,752.9,618.5,753.5,626.5z M749.8,597.2c-2.4-0.9-3.4-4.8-6-1.1
		c-0.7,0.9-5.1-4.3-4.5-6.2c1.6-4.8,3.3-9.6,5.1-15.2C747.1,582.3,748.3,589.5,749.8,597.2z M725,532.3c2.8,2.5,4.8,5.4,6.2,8.8
		c1,2.6,1.9,5.4,3.5,7.7c7.6,10.8,6.4,21.8,1.3,33.1c-1.1,2.4-1.8,3.3-4.2,1.9c-1-0.6-2.1-1.1-3.2-1.3c-9.6-1.5-11.5-8.4-11.7-16.5
		c-0.1-1.6-0.1-2.4,2-3c4.6-1.4,5.3-6.4,1.6-9.7c-1.5-1.3-2.8-2.9-4.5-4c-8.3-5.5-8-13-5-21.5c2.7,2.2,5.5,4,7,7.2
		c-1-0.4-2.1-0.8-3.1-0.8c-1.2,0-2.2,0.5-2.8,2.1c-1.2,3.2-0.4,6.3,2.3,8.6c1.5,1.3,3.6,1.8,5,0.3c3.1-2.9,1.1-6.9-0.9-9.9
		c2.2-0.2,2.8,2.2,4.7,2.9C725,536.9,724.2,534.5,725,532.3z M715.9,557.8c0-1.5,0.4-2.8,2-2.9c2-0.2,2.5,1.2,2.5,2.9
		c0,1.5-0.1,3.3-2.1,3.2C716.8,561,715.9,559.6,715.9,557.8z M718.6,541c-0.2,1.3,0,3.1-1.9,2.7c-2.3-0.4-2.8-2.5-2.9-4.5
		c0-1.1-0.1-2.6,1.6-2.4C717.8,537.1,718.3,539,718.6,541z M704.4,494.8c6.9,7.8,18.7,33.8,18,40.5c-3.4-3.1-6.7-6-9.9-9
		c-2-1.9-3.2-2-3.9,1c-1,4.7-1.4,9.5-1.2,14.4c0.2,4.3,4.4,5.5,6.3,8.5c0.8,1.2,3.7,1.5,1.3,4.1c-2.1,2.3-3.3,0.4-4.5-0.5
		c-6.5-4.9-12.8-10.1-19.4-14.9c-2.6-1.9-3.6-4-3.6-7.1c-0.2-9.4,1.2-18.5,3-27.6C699.8,506.5,699,496.5,704.4,494.8z M666,671.5
		c-18.6,13.2-38.5,24.1-58.6,34.7c-2.4,1.3-3,0.4-3.7-1.7c-6.9-19.3-17.1-36.6-31.1-51.7c-2.1-2.2-2.7-3.9,0.5-5.7
		c2.4-1.4,4.2-3.7,5.8-6.1c5.2-7.4,5.2-13.7-0.7-20.3c-12.1-13.7-26.9-23.6-43.9-30.2c-5.8-2.2-10.9-0.3-14.7,5
		c-2.4,3.4-4.5,7-5.7,11c-0.9,3.2-2.3,3.2-5,2.1c-29.3-11.9-61.4-16.1-92.8-11c-2.7,0.4-3.2-0.3-3.8-2.8
		c-4.4-21.7-6.3-42.2-7.9-64.5c-1.2-3.9,1.2-5.6,6.1-6.9c52.8-13.7,137.1-45.6,163.1-96.9c1.5-3.1,3.3-1.3,4.8-0.6
		c24.5,9.9,47.2,23.5,68.8,38.5c1.4,0.9,2.1,1.4,1.4,3.4c-17.6,60.9-0.3,137.7,19.1,196.8C669.2,668,668.7,669.6,666,671.5z
		 M458.5,826.6c2.4,6.2,4.5,12.5,7.1,18.5c1.6,3.6,0.4,4.1-2.9,4.1c-45.4-0.5-89.4-23.8-111.6-64.2c6.8-1.1,13.4,0.1,19.9-1.3
		c6.5-1.4,13.1-2.1,13.6-12.4c5.6,9.1,6.3,19.3,19.4,17.5c35-4.6,70.2-8.2,103.8-20c5.3-1.9,7.1-4.5,5.7-9.7
		c-1.1-4,0.8-9.9-2.4-11.8c-2.9-1.8-7.5,2-11.3,3.3c-36.2,11.8-74,17.4-111.9,19.5c-2.1,0.2-3.7-0.1-4-2.5c-0.4-3.1,2.2-1.9,3.4-2
		c39.8-5,80.6-7.7,118.6-21.8c3.3-1.3,4.4-2.6,1.9-5.8c-3.2-4.2-4.3-11.3-8.8-12.6c-4.1-1.2-9.5,2.7-14.4,4.2
		c-32.3,10-65.8,16.5-99.7,17.2c-2.3,0-3.3,0.7-3.2,3.1c0.1,4,0,8,0,12.9c-9.4-7.9-21-5.2-31.5-7.9c-11.2-2.9-11.4-2.5-11.5-14
		c-0.4-37.3,21.4-70.1,55.8-84.6c3.5-1.5,4.7-1.1,5.9,2.5c3.2,9.4,6.8,18.7,10.3,28c2.6,7,7.3,9.4,15.6,8c6-1,10.6-6.2,10.3-12.8
		c-0.4-10.5-1.2-20.9-1.9-31.4c-0.2-2.6,0.2-3.9,3.3-3.9c47.5,0.6,85.5,19.1,111.9,59.4c2.2,3.3,1.7,4.5-1.6,6.2
		c-10,5.2-19.8,10.7-29.7,16.2c-12.7,6.6-5.3,28.5,9.4,24.7c10.6-2.5,21.3-4.8,31.9-7.6c3.9-1,4.5,0.4,4.8,3.6
		c3.1,38.9-19.4,75.4-55.9,90.4c-7.9,3.3-7.9,3.2-12.7-4.1c-4.1-6.3-8.5-12.3-14.3-17.2C475.4,813,454.4,814.4,458.5,826.6z
		 M480.5,749.4c-9,2.2-17.9,4-26.9,5.4c-3.5,0.7-4.4-2.7-5.4-5.1c-2.7-7.8-2.3-8.4,5.5-10.1c6.2-1.3,12.3-2.9,18.3-4.6
		c2.7-0.8,4.1-0.5,4.5,2.5C477.1,741.6,479,745.3,480.5,749.4z M479.9,732.7c5.3-1.8,10.7-3.3,15.9-5.3c2.2-0.8,3.2-0.3,4.2,1.6
		c2.1,3.8,4.4,7.4,6.5,10.9c0,1.3-0.8,1.5-1.6,1.8c-6.3,2.9-13,4.7-19.7,6.6c-0.9,0.3-2.1,0.5-2.7-0.5c-2.8-4-3.5-8.8-4.7-13.4
		C477.6,733.2,479,733,479.9,732.7z M448.7,755.8c-20.8,3.1-39.9,5.4-60.4,7.6c-3.5,0.5-4.6-0.5-4.8-4c-0.6-10.4-0.8-10.2,9.6-10.9
		c16.2-1.1,32.3-3.2,48.3-6.2c2.9-0.6,3.2,0.1,3.5,2.5C445.3,748.4,446.5,751.9,448.7,755.8z M487.8,770.1c0.8,1.7,0.9,2.7-1.2,3.2
		c-9,2.2-16.1,3.8-25.8,5.5c-0.9,0.3-2-0.7-2.7-2.5c-1.4-3.7-4.4-7.9-3.6-11c0.9-3.4,6.5-2.1,9.9-3.1c5.1-1.5,10.3-2.3,15.4-3.8
		c2.4-0.7,3.4-0.6,4.1,2.1C484.8,763.8,486.3,767,487.8,770.1z M487.3,756.5c6.7-2.2,13.5-4.4,20.2-6.6c2.1-0.7,3-0.2,3.2,2.1
		c0.2,3,0.7,5.9,1.2,9.9c0.7,2.2-0.9,3.8-3.9,4.7c-3.3,1-6.5,2.5-9.8,3.3c-2.5,0.6-5.5,3.5-7.7,0.7c-2.8-3.7-4.1-8.2-5-12.8
		C485.3,756.5,486.6,756.7,487.3,756.5z M455.7,775.7c0.4,1.1,0.8,2.2,1.4,3.6c-19.2,4-38.4,5.4-57.7,7.8c-2.4,0.3-3.8-0.2-4.9-2.1
		c-2-3.5-3.9-6.9-6.1-10.3c-1.8-2.8,0-3,2.1-3c16.8-0.4,33.4-2.6,50-5c3.7-0.5,8.4-2.6,10.9-1.1
		C453.9,767.1,454.3,772.2,455.7,775.7z M313.4,671.8c-3.6-3.2-6.5-6.2-9.8-8.7c-5-3.8-4.9-8.5-3.3-13.8
		c3.2-10.8,10.7-18.6,17.9-26.5c3.9-4.3,8.2-8.3,12.6-12.1c3.9-3.5,7.2-3,9.8,1.6c2.4,4.3,4.2,9,6.4,13.4c0.8,1.5,0.4,2.3-0.8,3.3
		C332.4,640.8,321.3,654.7,313.4,671.8z M517.2,612.2c-2.1-1-3.3-2.1-1.9-4.5c0.3-0.5,0.4-1.3,0.6-1.9c5.9-15,12-17.6,26.2-10.2
		c13.6,7.1,26.4,15.4,36,27.8c2.2,2.9,3,5.1,3,7.7c0,4.8-7.1,15.1-11.4,16.8c-1.6,0.6-2.1-0.6-2.8-1.3
		C552.3,632.2,535.8,620.6,517.2,612.2z M664.1,448.1c-6.8,3.8-10.7,9.4-13.8,16.2c-22.5-15.7-46-29.8-71.5-40
		c-2.2-0.8-3.5-1.5-2.5-4.6c1.9-6.1,1.7-12.4-1.4-20C608.7,409.8,637.6,426.2,664.1,448.1z M588.2,235.3c-6,0.7-11.7,0.2-17.3-0.2
		c-12.1-0.9-24.3-0.4-36.5-0.4c-1.5,0-3.4-0.3-4,1.3c-0.7,1.7,1.2,2.5,2.1,3.6c4.7,5.7,10.1,8.4,18,8.1c16.3-0.7,32.6-0.2,48.8,1.6
		c4.2,0.5,6.6,2.7,8.9,5.6c11,14,19,29.5,24.4,46.9c-2.4-0.2-5.2-1-5.8,2.4c-0.3,1.5,0.5,2.6,1.9,3.2c2.4,0.9,3.6-0.6,4.4-2.6
		c1.1,1.4,1.7,3,1.5,4.7l-0.2-0.2c0,0.1,0,0.1,0,0.2c0,0,0,0,0.1,0c3.3,7.6,3.9,15.8,5.9,23.7c-6.2,7.1-1.3,15.5-2.8,23.2
		c-0.6,3.1-0.4,6.2,4.3,5.2c0.9-0.2,1.7,0.2,1.5,1.3c-0.1,1.6-1.2,1-2.2,1c-41-4.5-82.4-4.6-123.6-5.3c-9.1-0.1-9.3,0-9.8-9.5
		c-0.6-12-0.9-24-1.5-35.9c-0.1-2.8,0.3-4.2,3.7-4.9c16.9-3.3,27.2-15,28.6-32.3c0.3-3.9,1.6-4.6,5.1-4.5c8.7,0.2,17.3,0.2,26,0.1
		c33.2,0.3,34.4,57.7,32.9,81.7c-0.5,6.3-0.2,6.4,6.2,6.2c5.1-0.1,11.9,2.2,14.8-1c2.5-2.9,0.8-9.5,0.8-14.5
		c0-10.5,0-10.5-10.7-10.5c-8.8,0-9,0-9.9-8.8c-1.1-11.6-2.6-23-7.3-33.8c-4.4-10.5-13-21-25.4-20.5c-6.5,0.2-13-0.1-19.5,0.2
		c-2.9,0.1-4-1-5.1-3.5c-7.5-18.1-20.5-30.2-39.8-35.6c24,0,48.1,0.1,72.1-0.1C582.7,231.4,585.7,232,588.2,235.3z M465.2,292.2
		c36.4,28.9,94.6-14.4,55.8-52.2c12,4.9,18.8,16.1,24.3,27.1c1.4,2.6,0.6,3.8-2.3,3.3c-4.5-0.8-5.3,1.2-5.5,5.4
		c-0.5,16.4-11,27.6-29.3,31.5c-2.5,0.5-4.1,0.8-3.5,3.8c0.4,2.2-1,2.4-2.7,2.4c-20.1,0-40.3,0-60.4,0c-1.4,0-2.8,0-2.8-1.9
		c0-31.1-6.4-60.7,29.4-74.6C448.4,250.8,445.3,277,465.2,292.2z M492.2,242.1c11.9,0,21.5,9.6,21.5,21.5c0,11.9-9.6,21.5-21.5,21.5
		c-11.9,0-21.5-9.6-21.5-21.5C470.7,251.7,480.3,242.1,492.2,242.1z M480.6,228.6h-22.3c-0.3-0.5-0.5-0.9-0.8-1.4
		c4.3-4.1,8.7-8.1,12.9-12.3c1-1,2.2-1.3,3.6-1.3c4.8,0,9.7,0.2,14.5,0c2.7-0.1,3.2,1,3.3,3.5C492.1,228.6,492.2,228.6,480.6,228.6z
		 M500.7,213.6c12.8,0.4,12.7,0.1,18,11.6c1.5,3.2,0.5,3.6-2.4,3.5c-4.3-0.2-8.6,0-12.9,0c-8.8,0-8.5,0-8.9-8.9
		C494.2,214.7,495.7,213.4,500.7,213.6z M438.7,317.8c0-2.8,1.1-3.3,3.6-3.3c9.8,0.1,19.7,0,29.5,0c9.7,0,19.3,0.2,29-0.1
		c3.6-0.1,4.5,1.3,4.6,4.5c0.4,12,0.8,23.9,1.4,35.9c0.2,3.3-0.9,4.3-4.1,4.3c-20.1,0.2-40.3-0.1-60.4,0.9c-2.4,0.2-3.6-0.5-3.6-3.3
		C438.8,343.8,438.8,330.8,438.7,317.8z M543.1,213.2c12.9,1.6,23.8,8.1,34.7,15.4c-6.5,0-13.1,0-19.6,0c-1.3,0-2.1-0.7-3-1.5
		c-4.2-4.2-8.5-8.3-12.7-12.5C542.7,214.1,542.9,213.7,543.1,213.2z M539.2,215.5c4.1,4,8.2,8.1,13.2,13.1c-9.7,0-17.8,0-25.9,0
		c-1.9,0-3.1-0.5-3.9-2.3c-1.9-4-3.9-8-6.3-12.8c7.2,0,13.7,0,20.2,0C537.8,213.6,538.4,214.8,539.2,215.5z M534,210.4h-75.8
		C483.5,203.6,508.7,205,534,210.4z M453.4,213.7c4.1-0.1,8.3,0,12.4,0c0.4,0.5,0.7,0.9,1.1,1.4c-4.5,4.1-8.9,8.3-13.4,12.5
		c-0.8,0.7-1.6,1.1-2.7,1.1c-7.4,0-14.8,0-23.7,0c7.1-5.3,13-9.7,19-14.1C448.4,212.9,451,213.8,453.4,213.7z M434.4,219.2
		c-5.2,3.2-8.9,8.8-16.7,9.8C422.4,224.7,429.4,220.6,434.4,219.2z M357,356.6c2.9,0.4,3.2-1.1,3.2-3.5c-0.1-6.3,1.1-12.9-0.3-18.9
		c-3.2-13.8,3.3-25.5,6.9-37.8c3.7-12.8,10.7-24.1,17.7-35.4c6.2-10,14.4-12.6,25.3-12.7c10.8-0.1,21.6-0.5,32.4-0.9
		c6.6-0.2,9.8-6.2,14.1-10.1c1.3-1.1-0.2-2-1.5-2.1c-15.7-0.3-30.8-0.1-47.2,1.4c3.1-4,6.1-5.2,10.1-5.2c19.8,0.2,39.6,0.1,59.5,0.4
		c-17.1,4-29.6,13.4-37,29.5c-3.7,8.2-2.6,16.7-2.4,25c0.1,5.2-1.4,6.4-6.4,6.2c-10.3-0.4-20.7,0-31-0.2c-2.6,0-3.7,0.6-4,3.4
		c-0.5,4.9-1.7,9.8-2.7,14.7c-0.7,3.3,0.5,4.2,3.9,4.2c11.2-0.2,22.3-0.1,33.5,0c7.5,0,6.4-1,6.5,6.7c0,1-0.1,2,0,3
		c0.7,4.4-0.4,7.1-5.7,6.1c-2.6-0.5-3.5,0.7-3.4,3.3c0.2,6.3,0.3,12.7,0,19c-0.2,4,1.1,5.4,5,4.9c1.3-0.2,3.7-0.9,3.8,1
		c0.1,2.4-2.4,1.7-3.9,1.7c-25.3,0.2-50.6,1.4-75.8,2.6c-1.5-0.1-4,1.3-4-2C353.7,358.8,353.1,356,357,356.6z M437.7,310.3
		c0.1,2.8-1.2,3.3-3.6,3.2c-6-0.1-12,0-18,0c-5.8,0-11.7-0.1-17.5,0.1c-2.6,0.1-3.6-0.5-3-3.4c0.9-4.5,1.5-9.2,2.2-13.8
		c0.3-1.9,1.2-2.8,3.3-2.8c11.2,0.1,22.3,0.1,33.5,0c2.4,0,3.2,0.8,3.1,3.2C437.5,301.3,437.5,305.8,437.7,310.3z M429.7,335.1
		c-0.1-3.5,2-3.1,4.2-3.2c2.2,0,3.9,0.2,3.7,3.2c-0.2,3,0,6,0,9c0,2.7-0.2,5.3,0.1,8c0.4,3.4-1.1,4.2-4.2,4.2
		c-3.3,0-3.8-1.4-3.7-4.2C429.9,346.4,429.9,340.7,429.7,335.1z M352.9,370.8c0.4-2.5-1.4-6.2,3.8-6.3c32.4-0.8,64.7-2.9,97.1-2.4
		c62.3-2.7,124.8-2.9,186.8,3.3c3.9,0.4,3,2.6,3.1,4.8c0.2,3.2-2,2.4-3.7,2.2c-33-3.1-66-3.8-99-3.8c-61.4-0.2-122.7,0.5-183.9,4.8
		C355.3,373.5,352.2,374.8,352.9,370.8z M389.3,397.6c-1.6,0-3.3,0.4-4.8-0.8c-9.6-7-19.2-14-28.7-21.5
		c95.2-5.5,190.4-7.8,285.5-1.6c0,0.5,0.1,0.9,0.1,1.4c-8.4,7-16.9,14-25.2,21c-1.7,1.5-3.6,1.5-5.6,1.5
		C536.9,397.6,463.1,397.6,389.3,397.6z M510.7,425.6c-6.6-2.2-13.4-3.8-19.8-6.3c-4.4-1.7-8-1.8-10.9,2c-4.3,5.5-9.1,5.3-14.5,2
		c-4.4-2.7-7.9-2.1-12.4,0.9c-22.9,14.8-54.7,27.8-82.4,20.4c4.7-3.8,8.9-7.1,12.9-10.5c1.2-1,2.4-0.7,3.7-0.5
		c22.4,2,41-6.5,57.1-21.3c3.3-3,4.4-7,2.5-11.7c25,0,49.2,0,73.6,0c2.2,0,3.6,0.3,3.1,2.9c-1.4,7.4-3.4,14.5-7.9,20.7
		C514.2,426.1,512.9,426.3,510.7,425.6z M509.8,430c-5.6,4.4-11.1,8.1-18.7,3.6c-4.7-2.7-10-4.2-15.4-6.4c2.7-2.3,5.2-4.4,7.7-6.6
		c1.1-1,2.2-1.1,3.7-0.6c7.4,2.4,14.8,4.6,22.3,6.9C511.9,427.6,511.5,428.6,509.8,430z M439.5,400.6c2.2,0.1,4.4,0.4,5.6,2.5
		c1.3,2.3-0.1,4.2-1.2,6c-2.1,3.1-4.9,5.4-7.9,7.6c-12.6,8.9-26.6,14.2-41.3,15.4c-4.3-0.5-8.9,0.6-10.5-3.5
		c-1.6-4.2,2.1-7.2,4.9-9.5C403.8,407.1,420.2,399.9,439.5,400.6z M374.7,421.3c5.2-3.9,11.3-6.6,17.6-8.6c-2.6,2.2-5.1,4.4-7.2,6.9
		c-2.6,3-4.7,6.3-2.9,10.4c0.7,1.7,0.1,2.3-1.1,3.2c-3.7,2.8-7.4,5.7-11,8.6c-1.3,1-2.4,2.7-4.2,1.2c-1.7-1.3-2.5-3.2-1.9-5.3
		C365.9,431.2,369.4,425.3,374.7,421.3z M350.6,436.7c5.4-4.4,11.6-7.9,18.4-12.6c-5.2,8.8-12.6,19.4,1.6,22.4
		c30.3,6.1,60.3-6,85.3-22.2c2.5-1.7,4.4-1.6,6.8-0.6c10.7,4.4,21.5,8.6,32.2,13.2c2.7,1.2,4.9,1,7.5-0.2
		c13.4-6.2,20.1-17.2,22.3-31.4c0.6-4,6.1-6.9,9.2-4.5c1.6,1.2,0.8,3.1,0.4,4.6c-1.9,6.9-6.2,12.5-10.8,17.7
		c-6.6,7.5-14.3,13.8-22.4,19.8c-2.2,1.6-3.7,1.5-5.8,0.4c-7.8-4.1-15.8-7.7-23.3-12.3c-5.4-3.3-9.9-2.3-14.8,0.5
		c-10.5,6-10.7,6.8-2.6,15.4c3.8,4,7.5,8,11.6,11.7c2.7,2.5,2.7,3.5-0.9,5.2c-19,8.9-38.8,15.2-59,20.4c-19,4.9-38,8.2-57.8,7.9
		c6.4-10.2,12.3-19.6,18.2-29c1.1-1.8,3.6-3.7,1.7-6.1c-2-2.6-5-3.7-8.4-3.2c-4.3,0.6-6.8,4-9.6,6.6
		C343.4,454,343.3,442.6,350.6,436.7z M326.1,457c6-5.5,12-11,19.4-16.2c-2.6,7.5-3.4,14,2.2,19.7c1.5,1.6,0,2.3-0.8,3.2
		c-5.2,5.1-10.6,10.1-15.8,15.2c-1.7,1.7-2.7,1-4.1-0.2C321.5,474.1,320.8,461.8,326.1,457z M321.6,461.9c-1.6,7.4-1,14,5.1,19
		c1.1,0.9,0.7,1.6-0.1,2.4c-0.9,0.8-1.6,1.9-3.3,0.9C316.5,480.3,315.2,466.6,321.6,461.9z M246.2,633c3.9,36.5,9.4,72.7,20.1,107.9
		C251.1,706.5,245.1,670.4,246.2,633z M269.8,744.8c-13.2-40.6-20-83.3-22.4-126c-0.4-10.8,2.2-21.5,4.5-32
		c6.6-29.2,17.6-56.6,34.1-81.7c10.1,41,80,28.3,110.2,21.7c6.2-1.4,6.1-1.5,6.4,4.8c1,21.3,3.4,42.4,7.5,63.3
		c0.5,2.5,0.3,3.7-2.3,4.2c-21.7,4.3-40.8,14.1-58.8,26.8c-2.2-4.7-4.3-9.4-6.7-13.9c-3.4-6.3-8.2-7.2-13.3-2.3
		c-9.3,9-18.9,17.9-25.8,29c-8.3,13.9-7.9,18.9,3.9,29.4c4.4,3.9,4.9,6.7,2.9,12.2c-10.3,27.3-9.5,55.3-0.8,83
		c-13.7-2.3-25.8-7.5-37.1-14.8C270.6,747.6,270.3,746.2,269.8,744.8z M412.7,881c-58.2-21.2-102.5-59.7-133.6-113.2
		c-2.8-4.9-4.7-10.2-6.8-16.5c11.3,5.8,21.5,11.2,33.9,13.3c2.3,0.4,4,1.1,5.1,3.8c29.6,77.3,117.8,120.5,197.3,101.4
		c1.8-0.4,3.6-0.8,4.9,1.1c5.6,8,12.1,14.9,20.7,20.2C492.3,902.3,451.9,895.3,412.7,881z M537.7,893.3
		c31.4-8.7,60.8-18.6,89.8-31.7C613.3,873.4,557.3,893.4,537.7,893.3z M701,797.7c-12.2,15.9-26.1,30.2-41.8,42.7
		c-9.3,7.4-20,12.3-30.7,17.3c-28.1,13.2-57.4,22.9-87.1,31.6c-8.6,3-22.5-13.9-27.5-20.7c68.1-17.9,112.6-85.2,92.7-154.3
		c-0.9-3.1-0.4-4.4,2.6-6c21.1-11,42.1-22.1,61.2-36.6c6.2,16.2,13.2,31.6,22,46.4c1.3,2.2,1.1,3.2-0.9,4.7
		c-5,3.7-8.8,8.6-11.5,14.2c-6.6,12.7,2.1,25,13.2,31.3c15,8.2,18.7-11.4,22.6-21.8c4.2,2.5,8,5,12.9,6.3
		C721,769,711.7,783.7,701,797.7z M694.1,725c5.1-1.6,5,5.3,8.1,7.7c2.2,1.7,3.9,4.1,5.5,6.4c1.7,2.4,6.2,3.5,4.8,7.4
		c-2.6,7.4-3.5,18.3-12.6,21c-11.7-0.4-22.1-17.5-17.6-28.2c0.8-1.8,1.8-3.5,2.9-5.2C687.6,730.4,690.3,726.1,694.1,725z
		 M749.6,689.8c-1.2,5.5-2.7,10.9-3.8,16.5c-0.5,2.5-1.5,2.4-3.4,1.8c-6.1-1.8-6.7-2.9-4.8-8.8c3.6-11.4,6-23.2,5.1-35.2
		c-0.6-3-0.4-7.3-3.8-7.9c-3.8-0.7-4,3.8-4.9,6.4c-3.1,9.5-6.9,18.8-10.9,28.7c-8-10.7-13.3-22.1-18-33.8
		c-9.6-23.9-16.2-48.6-21.2-73.9c-0.6-3.3,0.1-4.6,3.6-4.1c6.1,0.8,12.2,1.6,18.3,2c5.5,0.3,7.7-1.9,7.7-7.3
		c-0.1-6.3-1.6-11.8-7.1-16c-7.6-5.9-15.3-11.7-23.5-16.7c-2.2-1.4-3.1-2.7-2.9-5.5c0.8-13.4,1.7-26.8,6.7-39.6
		c1.3-3.4,2.8-6.7,5.1-9.6c4.6-5.8,6.2-5.6,9.7,1.6c-1,0.1-2,0.1-2.9,0.2c-0.9,0.1-2.1-0.3-2.6,0.9c-0.6,1.4,0.5,2.1,1.4,2.8
		c1.2,1,3.9,2,1.2,3.9c-2.1,1.5-1.9,7.2-6.6,4c-2.5-1.7-3.5-0.2-3.8,1.8c-2,10.6-3.9,21.2-3.2,32.1c0.2,3,1.6,5.2,4.1,7
		c6.6,4.8,12.7,10.3,19.5,14.6c6.1,3.9,5,9.9,6.2,15.3c0.8,3.9,0.3,7.7,3.5,11.3c2,2.3,1.1,7,1.6,10.6c2.5,18,6.8,37.8,18.6,52.2
		c5.1,5.6,8.9,6.1,15.4,2.1c0.2,5.5,1.6,11.1-5.3,13.8c-1.8,0.7-1.5,2.3-1.5,3.8c0,6.5-0.2,13-0.1,19.5c0,1.4-0.9,3.6,2.3,2.8
		C750.3,686.8,749.8,689,749.6,689.8z M750.7,681.7c-0.2,1.4-0.5,3-2.2,2.6c-1.4-0.3-0.7-2-0.7-3c0.2-5.5,0.8-11,0.8-16.4
		c0-3,2.1-3.3,4.4-5C752.8,668,751.9,674.9,750.7,681.7z"/>
	<path d="M603.6,480.4c-1.2-4.5-8.1-9.2-12.7-8.8c-4.1,0.4-6.1,3.2-5.1,7.3c1,4.2,6.6,8.6,11.6,8.9
		C602.4,488.2,604.9,485.2,603.6,480.4z M598.7,486.5c-4.2,0.8-10.9-4.1-11.8-8.3c-0.8-3.7,1.8-5.3,7.6-4.3c-0.9,1.6-3.1-0.1-4,1.6
		c-0.9,1.6-1,2.8,0.9,3.5c-0.8-4.9,2.2-3.5,4.8-2.8c2.6,0.7,3,3.9,5.5,4.7C604,484.4,601.8,485.9,598.7,486.5z"/>
	<path d="M608.9,615.7c-5-0.2-9.2,4.1-9.3,9.6c0.1,13.1,17.4,13.5,18.1,0.5C617.8,620.2,614,615.9,608.9,615.7z M608.7,633.5
		c-4.1,0-7.8-3.8-7.8-8c0-4.2,3.7-8,7.8-8c4.1,0,7.7,4,7.5,8.2C616.1,629.9,612.6,633.5,608.7,633.5z"/>
	<path d="M479.9,537.3c-5.6,0-9.9,4.1-10,9.6c0.3,12.8,19.7,13.5,19.8,0.1C489.7,541.4,485.5,537.3,479.9,537.3z M480.3,555.4
		c-4.2,0.2-8.4-3.7-8.6-8c-0.2-4.6,3.7-8.8,8.2-8.8c4.4,0,8.3,3.8,8.4,8.2C488.4,551.2,484.6,555.3,480.3,555.4z"/>
	<path d="M574.3,463.1c-4.1-3.6-8.1-7.2-12.4-10.7c-0.5,0.3-1,0.4-1.3,0.7c-0.8,1.1,0,1.8,0.7,2.5c3.7,3.3,7.4,6.6,11.1,9.9
		c0.7,0.6,1.6,1.4,2.6,0.4C576.3,464.8,575.2,463.9,574.3,463.1z"/>
	<path d="M573,443.5c4.9,2.2,9.9,4.4,14.8,6.6c1.4,0.6,2.1,0,2.5-1.3c-0.3-0.4-0.6-0.9-1-1.1c-5.2-2.4-10.5-4.8-15.7-7.1
		C571.5,439.8,571,442.8,573,443.5z"/>
	<path d="M584.6,452.3c-4.6-2.6-9.1-5.3-13.8-7.7c-1.4,0.8-2.1,2-0.5,2.9c4.3,2.4,8.6,4.8,12.9,7.3c0.7,0.4,1.5,0.8,2.2-0.1
		C586,453.7,585.6,452.9,584.6,452.3z"/>
	<path d="M579.3,457.5c-4-2.7-7.9-5.4-11.9-8c-0.8-0.5-1.8-1.3-2.5,0.1c-0.5,1.1,0.1,1.9,1,2.5c4,2.7,7.9,5.4,12,8
		c1,0.6,2.2,1,2.8-0.4C580.7,458.5,580,458,579.3,457.5z"/>
	<path d="M275,682.3c-2.3,0.3-2.8,2.3-3,4c-0.6,5.3,0.7,10.2,3.6,14.6c0.9,1.3,2.2,2.1,3.8,1.7c3.1-0.9,2.1-4.9,2.5-7.4
		c-0.1-3.7-1.2-7.1-3.2-10.3C277.9,683.5,277,682.1,275,682.3z M279.7,695.9c-0.1,0.9,0.2,2-1.2,2.4c-1.4,0.4-2.3-0.3-2.8-1.4
		c-1.5-3.4-2.1-6.8-0.1-11.1C277.7,689.5,280.1,692.2,279.7,695.9z"/>
	<path d="M268.2,548.4c-1.8-0.3-2.1,1.7-2.7,3.1c-1.9,4.3-3,8.7-2.8,13.4c0,1,0,2.1,1.2,2.5c1.2,0.3,1.8-0.8,2.2-1.6
		c2.3-4.1,3.2-8.6,3.7-13.4C269.1,551.2,270.7,548.8,268.2,548.4z"/>
	<path d="M342,589.6c4.9-0.1,8.2-4.1,8.1-10c-0.1-5.4-4-10.1-8.4-10c-4.4,0.1-8.1,4.8-8,10.3C333.7,585.7,337.1,589.7,342,589.6z
		 M341.8,571.5c3.7,0,6.8,3.7,6.9,8.3c0,4.2-3.3,8.5-6.8,8.6c-3.3,0.1-6.8-4.3-6.8-8.5C335.1,575.1,338,571.5,341.8,571.5z"/>
	<path d="M653.9,745.5c-6-0.1-12.5,8.1-11.1,13.9c0.7,2.6,2.2,4.2,5.3,4.3c6.1,0,12.8-7.7,11.4-13.6
		C658.8,747.3,657.1,745.3,653.9,745.5z M654.7,753.9c-0.2,3.2-2.2,4.9-4.6,5.6c-2.2,0.2-3.1-0.8-2.9-2.3c0.3-3.2,2.2-5.6,5.3-6.3
		C654.6,750.5,654.8,752.4,654.7,753.9z M657.2,754.2c-0.7-2.4-1.1-5-4.5-4.8c-3.7,0.2-5.7,2.6-6.7,5.7c-1.1,3.3,0.2,5.7,3.6,6.9
		c-4,0.5-5.4-1.6-5.2-5.1c0.4-4.9,5.3-10.1,9.5-10C657.1,747.1,657.9,748.8,657.2,754.2z"/>
	<path d="M599,854.7c-4.1,0.6-8,1.8-11,4.9c-1.3,1.3-2.8,2.7-2.1,4.7c0.8,2.3,2.9,2.3,5,2.3c4.3-0.6,8.2-2.1,11.3-5.3
		C605.5,858.3,603.4,854,599,854.7z M592.7,864.4c-0.9,0-2.1-0.6-1.7-1.2c1.6-3,4.9-3.6,7.9-4.5c0.8-0.2,1.7,0.1,1.7,1.2
		C600.5,861.2,594.8,864.5,592.7,864.4z"/>
	<path d="M413,703.2c-3.4,1.6-4.7,1-6.5-2.1c-5.2-8.9-10.7-17.5-16.1-26.4c-5.1,3.3-9.8,6.6-14.7,9.6c-2.4,1.5-3.1,2.6-1.5,5.3
		c2.6,4.4,4.4,9.2,4.9,14.5c0.5,5.8-1.7,9.5-7.2,11.5c-4.1,1.5-8.4,1.8-12.7,1.1c-1.9-0.3-4-0.9-4.4,2.3c-0.5,4.8-1.3,9.5-1.9,14.3
		c-0.3,2.3,0.2,3.7,2.8,4.2c44.2,9,95.8-2.7,137.9-17.5C474.5,698.1,440,690.8,413,703.2z M379,738.7c-7.2-0.1-14.2-1.3-21.2-2.6
		c-2.7-0.5-3.5-1.8-2.9-4.4c0.5-2.1,0.9-4.2,1-6.4c0.2-5,1.6-8.4,6.8-6.5c20.8,0.8,21.4-14.1,13.7-29.3c-1.3-2.6-0.1-3.3,2-4.5
		c3.8-2.4,7.8-7,11.2-6.6c3.4,0.5,4.9,6.8,7.2,10.6c2.9,4.6,5.7,9.4,8.7,14c1.3,2,1.5,3.2-0.9,4.7c-10.7,6.7-17.9,16.2-21.7,28.2
		C382.2,738.1,381.3,738.7,379,738.7z M426.2,735.5c-12.3,2-24.7,3.2-37.2,3.4c-4.1,0.1-4.9-0.9-3.3-4.8
		c15.5-40.4,74.2-46.1,104.6-14.9C469,726.6,447.8,732,426.2,735.5z"/>
	<path d="M488.7,812.6c-3.4,1.2-1.9,2.7-0.3,4.2c5,4.7,10.1,9.2,14.9,14c2.7,2.7,4.7,3,8.1,0.9c26.6-15.9,38.1-40.4,40.3-70.1
		c0.4-4.1,0.5-7.2-5.4-6.3c-8.5,1.2-17.2,1.6-25.8,2.2c-2.7,0.2-3.1,1.3-3.2,3.7C517.1,782.1,510.8,805.1,488.7,812.6z M519.9,766.1
		c0.1-3.9,0.5-5.9,5.2-5.9c7-0.1,13.9-1,20.8-1.8c2.3-0.3,2.9,0.4,2.8,2.6c-1.8,29.2-13.3,52.8-39,68.3c-1.4,0.8-2.4,1.2-3.9-0.2
		c-4.6-4.5-9.4-8.9-14.5-13.8C512.2,805.1,519.1,787.3,519.9,766.1z"/>
	<path d="M502.7,793.9c5.3-6.4,8.8-13.8,10.1-22.8c-36.6,14.2-74.3,19.1-113.2,22.8C426.5,821.4,477.3,825.5,502.7,793.9z
		 M404.2,795.4c37.1-3.7,70.8-8.4,105.9-21.2c-2.7,10.9-8.1,19.3-16,25.8C469.7,820.8,428.4,818.3,404.2,795.4z"/>
	<path d="M367.9,713.6c5.3,0,8.7-3.1,8.7-8c0-6.3-6.6-12.9-13.2-13c-5.6-0.1-8.8,2.9-8.7,8.4C354.7,707.7,360.8,713.6,367.9,713.6z
		 M363,694.3c5.9,0,11.9,5.8,11.6,11.3c-0.2,4.2-2.7,6.2-6.8,6.2c-5.9,0-11.8-5.7-11.7-11.3C356.3,696.7,358.9,694.3,363,694.3z"/>
	<path d="M578.7,341.6C578.8,341.5,578.8,341.5,578.7,341.6L578.7,341.6L578.7,341.6z"/>
	<path d="M537.7,298.1c-9,24.1,13.5,57.6,41,43.4c15.4-12.3,18.6-33.3,7.3-49.6C573,271.6,545.1,274.6,537.7,298.1z M590.7,314.7
		c0.5,23.6-25.4,38-42.5,20.8c-10.5-10-13.6-27.2-7.4-40.4c8.2-17.4,29.6-20,41.6-5C587.9,296.9,590.9,304.7,590.7,314.7z"/>
	<path d="M627.5,357.4c-0.1,3.3,0.9,4.2,4.2,4.2c3.4,0.1,4.3-1.2,4.1-4.3c-0.2-3.3-0.1-6.7-0.1-10c0-3.5-0.2-7,0.1-10.5
		c0.3-3.3-1.5-3.4-3.9-3.3c-2.4,0.1-4.5-0.3-4.3,3.5C627.8,343.7,627.8,350.5,627.5,357.4z"/>
	<path d="M578.8,341.6c-0.9,4.2-0.3,8.5-0.4,12.8c0,0.6,0.1,1.7,0.4,1.8c2.9,0.9,6,0.8,8.8,0.2c2.2-0.4,1.1-2.8,1.1-4.3
		C588.9,341.5,588.9,341.5,578.8,341.6z"/>
	<path d="M631.8,315.2c3.5,0.2,3-3.2,2.7-5.7c-0.9-0.1-1.8-0.3-2.7-0.2c-1.8,0.2-3.1,1.1-2.9,3.1C629.1,314,630.4,315,631.8,315.2z"
		/>
	<path d="M380.1,355c12.6-0.1,25.3-0.1,37.9,0c2.8,0.1,3.7-0.9,3.7-3.8c-0.2-6.8-0.2-13.6,0-20.4c0.1-3.4-1.3-4.2-4.4-4.2
		c-12.5,0.1-24.9,0.2-37.4,0c-3.4,0-4.2,1.2-4.1,4.4c0.2,6.7,0.3,13.3,0,20C375.5,354.4,377,355,380.1,355z M404.4,334.8
		c1-0.1,2-0.2,2.9,0c2,0.5,5.5-1.4,5.6,1.5c0.1,2.4-3.6,0.6-4.8,1.3c-1.6,0-2.6,0.1-3.6,0c-1-0.1-2.6,0.2-2.4-1.6
		C402.2,334.6,403.5,334.9,404.4,334.8z M402.7,344.8c1.2,0,2.3,0,3.5,0c0,0,0,0,0,0c1.7,0.2,5.4-0.9,5.2,1.8c0,1.3-0.8,1.6-1.9,1.7
		c-2.3,0-4.6,0-6.9,0c-1.1,0-2.4,0.2-2.5-1.5C399.9,344.6,401.4,344.8,402.7,344.8z"/>
	<path d="M366.8,357.6c2.5-0.1,5,0.5,4.8-3.6c-0.3-6.8-0.3-13.6,0-20.5c0.1-3.7-0.7-5.2-4.9-5.2c-4.6-0.1-4.2,2.3-4.1,5.2
		c0.1,3.2,0,6.3,0,9.5c0,3.7,0.2,7.3-0.1,11C362.3,357.6,364.2,357.7,366.8,357.6z"/>
	<path d="M467.5,889.9c-6-1.9-12-3.5-19.4-1.2c6.6,3.7,12.8,4,19.1,3.7c0.7,0,1.5-0.3,1.4-1C468.5,890.9,468,890.1,467.5,889.9z"/>
	<path d="M314.5,809.2c2.7,6.5,7.5,11,13.9,13.8C325.9,816.2,321.1,811.8,314.5,809.2z"/>
	<path d="M482,350.6c7,0,11.8-4.9,11.8-12c0-6.7-5.3-12-12-12c-6.5,0-12.1,5.7-12,12.2C469.9,345.5,475.2,350.6,482,350.6z
		 M481.9,328.4c5.7,0,10.5,4.7,10.5,10.3c0,5.3-5.3,10.5-10.6,10.5c-5.6-0.1-10.3-4.9-10.3-10.6
		C471.6,332.7,475.9,328.4,481.9,328.4z"/>
	<path d="M720.8,626c-0.8-1.9-0.6-5.2-2.6-5.5c-2.2-0.3-3.2,3-5,4.3c-10.5,7.7-9.6,16.9-4.5,27.2c4.3,8.7,7.5,17.9,13.2,27.1
		c3.8-9.3,7.1-17.7,10.5-26c0.5-1.1-0.2-1.9-0.7-2.8C726.9,642.8,724,634.3,720.8,626z M729.7,654.2c-2.7,6.5-5.3,13.1-8.2,20.4
		c-5.9-12-11.4-23.3-14.8-35.5c-0.4-1.4-1-2.8,0.3-4.2c3.4-3.7,6.8-7.5,10.6-11.7c3.6,9.8,6.8,19.2,12,27.7
		C730.2,652,730.2,653.1,729.7,654.2z"/>
	<path d="M713.1,621.9c3.3-3.1,5.6-6.1,2.8-10.9c-1.4-2.3-1.5-5.4-2.1-8.1c-2.1-11.7-2.1-11.7-14-11.7c-8,0-8.2,0-7,7.6
		c1.9,11.6,4.9,22.8,10,33.7C707,629.3,709.6,625.2,713.1,621.9z M694.3,595.8c-0.4-2.7,0.4-3,2.7-3.1c12.4-0.6,12.4-0.7,15,11.4
		c0.8,4,3.8,9.2,2.5,12.2c-2.1,4.7-6.8,8.3-11,13C698.9,617.8,695.9,607.1,694.3,595.8z"/>
	<path d="M405.6,297.7c-3.5,0.1-4.4,3-5,6.1c0.4,2.1,0.9,4.6,3.8,4.8c3.7,0.2,4.8-2.9,5-5.6C409.6,300.6,408.9,297.6,405.6,297.7z
		 M404.8,306.7c-2,0.1-2.2-1.6-2.1-3.1c0-1.9,0.5-3.8,2.7-3.9c1.9-0.1,2.2,1.5,2.3,3.2C407.4,304.5,407,306.5,404.8,306.7z"/>
	<path d="M608.6,620.6c-3,0.1-4.9,1.9-4.9,5c0.1,2.9,1.9,4.6,4.7,4.8c3.1,0.1,4.6-2,5.3-4.8C613.2,622.7,611.8,620.5,608.6,620.6z
		 M608.9,628.6c-2.2,0.1-3.4-1-3.4-3.2c-0.1-3.9,6.4-4,6.3,0C611.7,627.3,610.9,628.5,608.9,628.6z"/>
	<path d="M479.9,542.3c-3-0.1-5.1,1.3-5.3,4.6c-0.2,3.3,1.2,5.4,4.5,5.8c3.4,0,5.5-1.3,5.7-4.9C485,544.2,483.3,542.4,479.9,542.3z
		 M479.5,551c-5.1-0.4-4.6-7.5,0.6-7.4C484.9,544.3,484.5,551.4,479.5,551z"/>
	<path d="M341.3,585.5c3.5,0.1,4.3-2.5,4.5-5.4c-0.2-2.9-0.9-5.5-4.4-5.5c-3.5,0.1-4.3,3-4.3,5.6
		C337.2,582.6,338.1,585.4,341.3,585.5z M341.3,576.3c2.4-0.2,2.6,2.1,3.3,3.8c-0.7,1.6-0.7,4-3.1,3.8c-2.2-0.1-2.8-1.9-2.8-4
		C338.7,578,339.4,576.4,341.3,576.3z"/>
	<path d="M500.3,788.1c0.2-2.2,0.2-7.6-4.4-7.3c-3.1,0.2-7,0.6-9.6,3.7c2.6,2.8,0.2,8.5,4.7,8.2C494.2,792.5,500,793.3,500.3,788.1z
		 M492.6,790.1c-2.1,0.8-2.5-1.5-2.7-3.2c-0.3-3.7,2.8-2.7,4.8-3.4c3.2-0.6,3,2.4,3.1,3.8C497.9,790.8,494.4,789.4,492.6,790.1z"/>
	<path d="M481.7,784.8c-3.3,0.1-9.1-0.4-9.9,4.6c-0.4,2.5,0.5,6.6,4,8.9c2.8-3.2,8.9-0.5,9.2-5.8
		C485.1,790.1,485.9,784.7,481.7,784.8z M477.3,794.6c-3.6,1-2.6-2.5-2.7-3.7c-0.4-3.9,3.7-2.1,5.4-4c2,0.3,2.2,1.8,2.4,3.4
		C483,794.6,479.6,794,477.3,794.6z"/>
	<path d="M366.7,710.2c3.6,0,5.6-1.7,5.7-5.4c0.1-4.3-4.2-8.4-8.7-8.5c-3.6-0.1-5.6,1.9-5.9,5.3C357.6,705.6,362.4,710,366.7,710.2z
		 M363.6,697.8c3.2-0.1,6.7,3.3,6.9,6.6c0.2,2.7-0.8,4.1-3.5,3.9c-3.7,0.1-6.9-2.9-7-6.3C359.8,699.5,360.8,697.9,363.6,697.8z"/>
	<path d="M576.7,289.9c-8.1-6.1-18.6-5.3-25.8,1.7c-11.7,11.5-9.3,33.5,4.7,42.7c15.4,10.2,32.6-3.3,32.3-19.8
		C587.9,303.6,584.3,295.7,576.7,289.9z M582.3,327.5c-6.2,9.4-17,11.4-26.4,5c-12.8-8.8-14.9-29.2-4-39.8c3.8-3.7,7.6-5.3,13-5.3
		c6,0.1,10.6,3,14.6,7.3C587.6,303.4,588.8,317.7,582.3,327.5z"/>
	<path d="M481.6,344.1c7.2,0.6,7.9-10.8,0.4-10.7c-3.4,0-5.2,1.7-5.3,4.5C476.6,341.9,478.5,344,481.6,344.1z M482.2,334.9
		c2.1,0.2,3.6,1.6,3.4,4.5c-0.7,4.3-7.7,4.2-7.6-0.6C478.1,336.4,479.9,334.7,482.2,334.9z"/>
	<path d="M568,292.5c-9.3-0.2-16.4,7.3-16.4,17.5c0.3,23.5,31.8,25.1,33,1.4C584.7,301.3,577.1,292.7,568,292.5z"/>
</g>
</svg>
